<svg version="1.1" id="Layer_1" xmlns="http://www.w3.org/2000/svg" xmlns:xlink="http://www.w3.org/1999/xlink" x="0px" y="0px"
	 width="100%" viewBox="0 0 1024 352" enable-background="new 0 0 1024 352" xml:space="preserve">
<path fill="#000000" opacity="1.000000" stroke="none" 
	d="
M44.400303,245.492477 
	C8.779309,149.876053 68.390732,45.356209 168.163727,27.874973 
	C249.445084,13.633661 328.822510,60.738052 352.430420,139.922546 
	C372.066650,205.785461 355.327972,263.399536 304.632507,310.125488 
	C277.764832,334.889404 245.248367,347.536865 208.827118,350.396698 
	C136.983002,356.038025 69.725624,312.759247 44.400303,245.492477 
M210.212509,336.696686 
	C237.353851,334.157074 262.337616,325.427002 284.151489,309.059570 
	C330.463654,274.310455 350.871429,227.621506 345.356720,170.141647 
	C342.878265,144.309036 333.306274,120.570839 317.375397,99.980049 
	C281.436523,53.528740 233.733948,33.541473 175.654037,40.776665 
	C139.492615,45.281403 108.948807,62.281807 84.925377,89.896988 
	C54.118420,125.309883 42.077629,166.656586 49.786160,212.860306 
	C57.046215,256.375946 80.110672,290.243652 117.253029,314.143372 
	C145.257233,332.162994 176.179520,339.037201 210.212509,336.696686 
z"/>
<path fill="#000000" opacity="1.000000" stroke="none" 
	d="
M809.359985,225.166870 
	C806.591309,224.999420 805.777893,223.660431 805.818665,221.478790 
	C805.859070,219.316437 807.304626,218.456345 809.019897,218.328323 
	C813.531555,217.991547 814.063843,215.272247 814.003174,211.466309 
	C813.817261,199.807465 813.847778,188.143158 813.965088,176.482712 
	C814.000183,172.995789 813.210815,170.590912 809.256409,170.340469 
	C806.834290,170.187073 805.746643,168.854080 805.759949,166.410339 
	C805.772339,164.124680 807.029053,163.140320 809.049622,162.728592 
	C814.229065,161.673187 819.195068,159.625717 824.291443,159.188507 
	C826.426514,160.718292 825.292175,163.253723 827.044189,165.140488 
	C839.952820,158.920807 853.172119,153.689636 866.236938,166.339172 
	C871.673401,163.398575 877.377930,160.343155 883.846985,159.196014 
	C886.843079,158.664719 889.824219,158.523926 892.796143,158.900024 
	C903.614624,160.269089 908.887512,166.415802 909.163635,178.523438 
	C909.418152,189.679749 909.327637,200.846848 909.203796,212.007141 
	C909.165527,215.455078 909.811707,217.800949 913.808533,218.166794 
	C916.020386,218.369263 917.370911,219.706833 917.209778,222.239929 
	C917.026001,225.127899 915.031616,225.189484 912.956543,225.194870 
	C906.459351,225.211716 899.962097,225.193054 893.464966,225.218048 
	C891.246277,225.226593 889.508240,224.746857 889.267395,222.079544 
	C889.029602,219.445587 890.645874,218.389908 892.797363,218.177597 
	C896.771362,217.785431 897.561829,215.235016 897.557434,211.912033 
	C897.543579,201.416656 897.738342,190.917328 897.510132,180.426987 
	C897.310364,171.245316 892.824890,167.501694 883.705688,168.418091 
	C881.728760,168.616776 879.747986,169.020889 877.834045,169.560944 
	C868.993530,172.055420 868.013611,173.413696 868.025513,182.566208 
	C868.038452,192.561905 868.082092,202.558105 867.993164,212.553040 
	C867.966370,215.570709 868.500488,217.743469 872.089661,218.107346 
	C874.439392,218.345566 875.427002,219.954132 875.219177,222.367828 
	C875.001038,224.900864 873.278625,225.183792 871.331177,225.189056 
	C865.167236,225.205719 859.003174,225.222900 852.839539,225.181366 
	C850.974731,225.168808 849.096008,225.050034 848.770569,222.523376 
	C848.464233,220.145187 849.322571,218.519073 851.755554,218.240601 
	C855.528992,217.808716 856.028198,215.451553 855.991150,212.248566 
	C855.865906,201.421249 856.027283,190.590500 855.889893,179.763458 
	C855.779724,171.076950 852.057129,167.772003 843.359924,168.379822 
	C841.379333,168.518234 839.400330,168.918121 837.461426,169.372101 
	C827.234497,171.766525 825.910767,173.449982 825.906555,183.845383 
	C825.902710,193.341217 825.969604,202.837784 825.864563,212.332474 
	C825.828613,215.578934 826.540527,217.804459 830.286865,218.184219 
	C832.650024,218.423767 834.420044,219.615524 833.922913,222.480026 
	C833.453247,225.186203 831.345459,225.167068 829.310974,225.173813 
	C822.813965,225.195343 816.316833,225.185715 809.359985,225.166870 
z"/>
<path fill="#000000" opacity="1.000000" stroke="none" 
	d="
M722.759033,226.283127 
	C717.239868,226.700592 713.002625,225.540436 711.112549,219.545700 
	C705.311829,223.488876 699.343079,226.117432 692.506348,226.340530 
	C675.574219,226.893082 665.553040,218.922943 662.397278,202.248795 
	C658.907959,183.812119 667.493896,166.588028 683.111877,160.815567 
	C690.532898,158.072739 698.095642,158.174683 705.709534,159.957642 
	C707.142639,160.293228 708.522461,161.052322 710.636719,160.455536 
	C711.209717,151.048859 711.097046,141.467926 710.743652,131.895767 
	C710.635254,128.959335 707.718628,129.204407 705.781677,128.631195 
	C703.707031,128.017242 701.489136,128.045807 701.482178,124.891640 
	C701.475281,121.749619 703.343506,121.087914 705.843994,120.569397 
	C709.911133,119.726006 713.968811,118.781059 717.955322,117.620529 
	C721.802063,116.500671 723.069946,117.916405 723.028625,121.685532 
	C722.909912,132.503098 722.953064,143.322495 722.943970,154.141174 
	C722.928284,172.782654 722.896606,191.424164 722.923279,210.065598 
	C722.932922,216.808121 723.554993,217.262375 730.209900,215.690887 
	C732.085938,215.247849 733.772705,214.696167 734.604736,217.258942 
	C735.339600,219.522476 735.595764,221.426987 733.015503,222.745956 
	C729.883606,224.347000 726.668701,225.647720 722.759033,226.283127 
M674.249023,195.259949 
	C674.636047,203.417068 677.544739,210.229126 685.140076,214.100922 
	C693.177795,218.198242 700.891968,216.530090 708.350525,212.177399 
	C710.368164,210.999939 710.930481,209.354004 710.926880,207.211395 
	C710.910217,197.243546 710.917297,187.275528 710.965210,177.307816 
	C710.976562,174.943436 709.964722,173.206787 708.212585,171.728577 
	C699.494080,164.372864 685.001465,166.358459 678.659546,175.801880 
	C674.877563,181.433548 673.906799,187.738388 674.249023,195.259949 
z"/>
<path fill="#000000" opacity="1.000000" stroke="none" 
	d="
M473.998779,193.233887 
	C468.166718,193.244568 462.833984,193.268234 457.501282,193.257568 
	C455.578613,193.253708 453.761993,193.468674 452.919159,195.520691 
	C450.086670,202.417038 447.294983,209.330109 444.617279,215.917862 
	C446.275574,218.312958 448.372650,217.575912 450.045715,218.073395 
	C452.143433,218.697174 453.078430,219.932297 452.969269,222.077133 
	C452.848846,224.442978 451.408539,225.175262 449.295868,225.174637 
	C442.130188,225.172501 434.964478,225.189255 427.798798,225.190109 
	C425.767487,225.190353 424.185730,224.638016 424.001434,222.213776 
	C423.810242,219.698120 425.203888,218.120316 427.419434,218.224030 
	C433.780670,218.521774 435.737122,214.361282 437.694855,209.439209 
	C447.236145,185.450806 456.982758,161.544067 466.660919,137.610138 
	C467.352112,135.900818 467.973358,134.228134 467.508789,132.294022 
	C467.102509,130.602570 465.222687,128.664383 466.845581,127.203194 
	C469.187836,125.094315 472.263062,123.752937 475.354126,123.230278 
	C477.986450,122.785194 478.184082,125.655388 478.888733,127.345963 
	C484.078552,139.797363 489.157684,152.294952 494.263733,164.781250 
	C500.630402,180.350281 507.095856,195.880371 513.278137,211.522354 
	C514.850586,215.500870 516.748230,218.100876 521.439697,217.972641 
	C523.100342,217.927246 525.386719,218.098541 525.977539,220.300232 
	C526.669373,222.878036 526.167847,225.108032 522.834290,225.128159 
	C514.002808,225.181488 505.170776,225.164932 496.339081,225.136124 
	C494.498596,225.130127 493.099579,224.466156 492.931641,222.311966 
	C492.764984,220.173798 493.544708,218.767975 495.733276,218.298080 
	C497.339783,217.953171 498.941223,217.584686 501.095001,217.103912 
	C500.174622,211.830536 497.623749,207.343338 495.707092,202.687302 
	C491.173737,191.674759 494.027161,193.414566 481.497437,193.235779 
	C479.164795,193.202484 476.831238,193.232529 473.998779,193.233887 
M477.416809,156.033417 
	C476.009674,152.730316 474.602509,149.427231 472.763367,145.110062 
	C467.530212,158.400452 462.690552,170.691483 457.823547,183.051956 
	C462.485718,184.255768 483.104706,184.328461 488.101501,183.147797 
	C484.604279,174.294052 481.140289,165.524445 477.416809,156.033417 
z"/>
<path fill="#000000" opacity="1.000000" stroke="none" 
	d="
M927.419189,240.282593 
	C929.890625,239.618027 930.537231,240.958832 931.371155,242.603867 
	C933.538147,246.878616 938.365479,247.308914 940.754456,243.104492 
	C943.866760,237.627167 946.197449,231.706177 948.875366,225.981232 
	C949.608093,224.414719 948.875244,223.073654 948.291565,221.695755 
	C941.214783,204.989731 934.099792,188.299652 927.105591,171.559082 
	C925.900879,168.675812 923.866211,167.528549 920.974854,167.331802 
	C918.342651,167.152679 916.467773,166.255630 916.737244,163.080658 
	C917.008240,159.887909 919.409851,160.075165 921.514893,160.046997 
	C928.175476,159.957870 934.838379,159.950836 941.499207,160.022873 
	C943.576355,160.045334 946.109314,159.664352 946.535828,162.772156 
	C946.936646,165.692429 945.484436,167.068497 942.636841,167.353073 
	C940.082397,167.608337 939.135437,168.912277 940.204468,171.468582 
	C945.271667,183.585205 950.297791,195.719055 956.009094,209.460083 
	C962.327271,194.903809 968.055420,181.706879 973.696289,168.710983 
	C971.524658,166.821243 969.494568,167.492233 967.828369,166.745819 
	C966.184875,166.009506 965.787231,164.754288 965.787170,163.126740 
	C965.787109,161.253281 966.820190,160.243027 968.506104,160.221970 
	C975.494080,160.134705 982.484192,160.133194 989.472351,160.209991 
	C991.514160,160.232422 992.268250,161.596558 992.278992,163.573105 
	C992.289856,165.563889 991.400818,167.069336 989.503113,167.034180 
	C983.515381,166.923294 981.888733,171.215439 979.969421,175.613281 
	C970.183044,198.038589 960.284546,220.415024 950.411377,242.802460 
	C945.234985,254.539917 937.812134,258.421326 927.259277,255.128571 
	C924.165894,254.163361 922.612976,252.580521 923.893616,249.315765 
	C925.039246,246.395416 925.000122,243.050690 927.419189,240.282593 
z"/>
<path fill="#000000" opacity="1.000000" stroke="none" 
	d="
M600.271240,172.540680 
	C599.182556,170.787659 598.099976,169.224518 600.103210,167.915482 
	C609.490234,161.781418 619.404602,157.116104 631.015259,159.261597 
	C639.935303,160.909897 644.133728,166.373108 644.255127,175.970169 
	C644.398315,187.294373 644.265625,198.621796 644.317017,209.947525 
	C644.346985,216.539886 645.234009,217.184326 651.677795,215.762711 
	C653.230774,215.420090 655.178284,214.380859 655.927124,216.690933 
	C656.567322,218.665634 657.406738,221.098587 654.859741,222.480820 
	C650.128845,225.048309 645.200623,227.019257 639.619812,226.191406 
	C635.403015,225.565872 633.683960,222.336288 632.182617,218.573105 
	C627.372437,220.925720 623.243530,224.080276 618.315125,225.650665 
	C605.258545,229.810989 593.805237,221.138641 594.742615,207.732620 
	C595.239746,200.623276 599.296570,195.829559 607.024048,193.883728 
	C613.827148,192.170670 620.828064,191.624680 627.828674,191.743484 
	C631.531189,191.806305 632.953247,190.405991 632.737610,186.749237 
	C632.532043,183.263336 632.813782,179.750076 632.644043,176.260391 
	C632.382446,170.883194 629.809875,168.439896 624.452026,168.298676 
	C617.759338,168.122269 611.668701,170.256775 605.905884,173.424896 
	C603.858582,174.550400 602.015442,175.628418 600.271240,172.540680 
M632.665405,200.955292 
	C632.576294,199.696991 632.168457,198.450073 630.764587,198.428085 
	C623.590698,198.315674 616.357056,198.322830 609.877625,201.957458 
	C607.028870,203.555405 606.146179,206.591766 606.536438,209.781784 
	C606.897217,212.731766 608.068604,215.455383 611.172485,216.323593 
	C618.238403,218.300034 624.191284,215.098831 630.032349,211.769791 
	C634.224609,209.380478 632.250122,205.254639 632.665405,200.955292 
z"/>
<path fill="#000000" opacity="1.000000" stroke="none" 
	d="
M766.009155,215.154266 
	C774.121887,217.898270 781.144287,216.077148 787.675720,211.664337 
	C789.786560,210.238220 791.564636,209.195969 793.625427,211.824600 
	C796.055969,214.924789 793.218323,215.907059 791.608887,217.279846 
	C773.695312,232.558914 753.768066,227.017685 744.471069,214.094498 
	C735.930420,202.222763 736.325745,189.233871 742.280884,176.667236 
	C747.859497,164.895020 757.760437,158.591690 771.107666,158.741318 
	C784.756042,158.894302 796.130005,170.679153 795.916748,184.336823 
	C795.841919,189.124878 792.103699,189.712982 788.535217,189.992416 
	C777.917297,190.823837 767.290405,191.548462 756.661560,192.229858 
	C751.159851,192.582581 750.301819,193.625061 751.786499,199.008865 
	C753.859314,206.525513 758.357666,211.989441 766.009155,215.154266 
M781.158081,174.454269 
	C776.778992,168.317169 770.549500,165.941589 764.471741,168.091003 
	C757.217590,170.656464 752.130981,177.586594 752.541748,184.826889 
	C762.733337,185.017227 772.726929,183.069687 782.725159,182.393951 
	C783.316345,179.357590 782.374878,177.233719 781.158081,174.454269 
z"/>
<path fill="#000000" opacity="1.000000" stroke="none" 
	d="
M543.095337,197.860306 
	C546.871033,215.402176 562.969849,221.755066 578.229126,211.804871 
	C582.240540,209.189133 584.093323,210.202728 585.725342,213.913376 
	C576.041016,225.741257 560.063721,229.644577 546.986816,223.492569 
	C534.588135,217.659637 527.825195,203.097900 530.135620,188.743439 
	C534.192871,163.535767 555.486023,153.838623 579.410889,160.864258 
	C582.507812,161.773682 583.766479,163.572800 583.164246,166.772110 
	C582.734558,169.054947 582.499451,171.373840 582.146423,173.671875 
	C581.953796,174.926178 581.332458,175.852264 579.974487,176.048416 
	C578.733154,176.227737 577.447876,176.025436 577.011475,174.771240 
	C574.467163,167.458542 568.267944,167.285767 562.226929,167.457016 
	C555.535889,167.646698 550.037292,170.618683 546.347534,176.360382 
	C542.163269,182.871506 541.421814,189.992691 543.095337,197.860306 
z"/>
<path fill="#000000" opacity="1.000000" stroke="none" 
	d="
M205.479584,122.530182 
	C198.051254,124.188644 191.190613,126.138596 185.177643,130.317368 
	C182.815201,131.959167 180.763489,133.833389 179.468292,136.463898 
	C176.549118,142.392731 177.896729,145.288483 184.204727,146.681091 
	C194.859360,149.033295 205.017670,152.574539 213.953217,159.079391 
	C220.003677,163.484009 224.907669,168.841370 227.650558,175.876480 
	C228.892197,179.061127 230.837585,180.195480 234.171616,179.682129 
	C237.619385,179.151276 241.119034,178.961182 244.593674,178.599609 
	C246.787338,178.371323 249.019302,177.824539 249.272079,181.242752 
	C249.502899,184.364105 248.033768,185.127594 245.173935,185.388016 
	C227.363815,187.009903 209.947952,190.448166 193.287460,197.189606 
	C155.195374,212.603119 127.419556,238.627274 111.379395,276.738525 
	C110.405075,279.053497 109.583984,282.011444 106.302521,280.911072 
	C102.725548,279.711639 103.763229,276.784210 104.799713,274.219635 
	C117.299194,243.292313 138.459045,219.819351 166.733093,202.542267 
	C182.371750,192.986145 199.343735,186.729858 217.178894,182.715836 
	C222.130447,181.601425 222.604599,180.725464 220.173538,176.419556 
	C213.458389,164.525650 202.306168,158.834015 189.815201,155.375809 
	C168.293396,149.417282 146.336258,150.087830 124.367233,151.759476 
	C119.229439,152.150421 114.111031,152.872482 109.008026,153.610397 
	C106.644287,153.952225 104.422966,154.027237 103.856277,151.239029 
	C103.240639,148.209976 105.407776,147.133072 107.947136,146.736893 
	C117.817307,145.197006 127.715836,143.815155 137.721924,143.731201 
	C147.048599,143.652954 156.380066,143.744308 165.704102,143.975616 
	C168.825653,144.053040 170.718628,143.439529 171.217865,139.933304 
	C172.526520,130.742538 178.699295,125.424637 186.471664,121.508392 
	C198.180939,115.608444 210.928925,113.960648 223.711090,112.948265 
	C244.181396,111.326950 264.626251,112.527756 285.026764,114.552315 
	C287.591217,114.806808 290.508789,115.032532 290.084137,118.549591 
	C289.701660,121.717232 286.803101,121.423058 284.512939,121.276619 
	C269.732605,120.331528 254.981064,119.070251 240.133591,119.276115 
	C228.612854,119.435852 217.214005,120.387108 205.479584,122.530182 
z"/>
<path fill="#000000" opacity="1.000000" stroke="none" 
	d="
M260.948486,209.982147 
	C260.953979,212.475296 260.924744,214.472992 260.968567,216.469101 
	C261.145447,224.524567 259.571594,226.844360 251.748596,228.607971 
	C245.667847,229.978806 239.531998,229.930603 233.612488,227.514526 
	C230.513046,226.249466 227.893173,224.352768 227.857498,220.724457 
	C227.818909,216.801178 230.692917,214.924957 233.981201,213.736649 
	C238.741302,212.016479 243.693680,211.004272 248.671906,212.238922 
	C253.021347,213.317673 253.813278,211.519943 253.797562,207.700623 
	C253.701736,184.402939 253.753967,161.104660 253.763580,137.806580 
	C253.764343,135.976624 253.648819,134.125366 253.878342,132.321045 
	C254.414658,128.104858 257.407593,126.740219 260.392120,129.634933 
	C269.827362,138.786270 279.061188,148.145844 288.328033,157.469528 
	C289.492828,158.641449 290.598480,160.041611 289.588715,161.899933 
	C288.585114,163.746826 286.809967,164.135681 284.918060,164.223267 
	C278.440491,164.523178 271.963898,164.979385 265.483856,165.038620 
	C261.831055,165.072021 260.690308,166.268951 260.771790,170.048370 
	C261.054993,183.189377 260.922028,196.339386 260.948486,209.982147 
M260.975952,141.661026 
	C260.996613,145.808853 261.008881,149.956741 261.041626,154.104477 
	C261.057617,156.131744 261.627808,157.775421 264.062683,157.793289 
	C268.304260,157.824432 272.546204,157.801941 276.787994,157.801941 
	C276.933990,157.367508 277.080017,156.933090 277.226044,156.498657 
	C272.090240,151.175980 267.610809,145.206421 260.975952,141.661026 
M246.135498,222.637878 
	C248.046524,222.451675 250.035507,222.500778 252.143173,220.351227 
	C246.778534,218.977249 242.093842,218.454468 236.591446,220.620544 
	C239.808228,222.625900 242.559586,222.667557 246.135498,222.637878 
z"/>
<path fill="#000000" opacity="1.000000" stroke="none" 
	d="
M143.316681,107.220512 
	C143.075027,116.099655 138.214844,121.637283 130.603531,122.149361 
	C124.449059,122.563423 117.775681,117.400879 116.755554,111.436531 
	C115.401894,103.522118 119.558487,97.001968 127.145683,95.138336 
	C134.523407,93.326157 141.377380,98.270088 143.316681,107.220512 
M136.469727,107.786369 
	C135.763000,106.490730 135.320328,104.914726 134.299149,103.952995 
	C131.448959,101.268723 128.163284,101.311737 125.368263,103.898544 
	C122.701332,106.366791 122.499733,109.518265 124.869926,112.377121 
	C127.358673,115.378975 130.496246,115.721069 133.719025,113.556534 
	C135.437927,112.402061 136.327911,110.594589 136.469727,107.786369 
z"/>
<path fill="#000000" opacity="1.000000" stroke="none" 
	d="
M191.195343,232.631012 
	C193.800064,226.863602 197.791748,224.294388 202.418289,225.114548 
	C207.092834,225.943237 210.538467,230.100937 210.612640,235.002396 
	C210.678116,239.327942 207.603516,243.251404 203.209061,244.450043 
	C196.373276,246.314545 190.693954,240.963776 191.195343,232.631012 
M203.034485,233.294739 
	C201.063110,231.787323 199.326065,231.806702 198.402405,234.351089 
	C197.906830,235.716202 198.451920,237.207092 200.013062,237.409851 
	C202.482697,237.730591 203.654739,236.378479 203.034485,233.294739 
z"/>
<path fill="#000000" opacity="1.000000" stroke="none" 
	d="
M284.322144,178.239868 
	C287.124634,178.815887 290.336823,178.742218 289.872986,182.269089 
	C289.447266,185.506180 286.453949,185.352020 283.944214,185.229172 
	C278.044800,184.940414 272.149139,184.574722 266.237762,184.239380 
	C265.038361,179.906021 265.559509,177.351562 270.523163,177.668884 
	C274.970123,177.953156 279.431854,178.006073 284.322144,178.239868 
z"/>
</svg>